{"title":"Hamari Adhuri Kahani (2015) Pre DvD Rip - XviD - [1CD] - Team Ic","uid":12011515,"size":733707124,"categoryP":"video","categoryS":"movies","magnet":"?xt=urn:btih:7c368a60edb1631ee0bf7535b846ee5182247cac&amp;dn=Hamari+Adhuri+Kahani+%282015%29+Pre+DvD+Rip+-+XviD+-+%5B1CD%5D+-+Team+Ic&amp;tr=udp%3A%2F%2Ftracker.openbittorrent.com%3A80&amp;tr=udp%3A%2F%2Fopen.demonii.com%3A1337&amp;tr=udp%3A%2F%2Ftracker.coppersurfer.tk%3A6969&amp;tr=udp%3A%2F%2Fexodus.desync.com%3A6969","seeders":8,"leechers":4,"uploader":"SS132203","files":3,"time":1434156848,"description":"Hamari Adhuri Kahani (2015) Pre DvD Rip - XviD - [1CD] - Team IcTv Exclusive\n &lt;a href=&quot;\nhttp://imgsparrow.co/image/47&quot; rel=&quot;nofollow&quot; target=&quot;_NEW&quot;&gt;\nhttp://imgsparrow.co/image/47&lt;/a&gt;\n &lt;a href=&quot;\nhttp://imgsparrow.co/image/n4&quot; rel=&quot;nofollow&quot; target=&quot;_NEW&quot;&gt;\nhttp://imgsparrow.co/image/n4&lt;/a&gt;\n\nSOURCE: Untouched Team Telly (Thanks a Ton)\nSample Within Torrent\nMovie Info\nBanner : Fox\nYear : 2015\nCast : Emraan Hashmi, Vidya Balan, ..\nVideo: XviD\nAudio : MP3\nGenre : Comedy/Drama\nSubtitles :nope\nResolution : 640 x 272\nRuntime : 2hr 06min XX\nSource : Team IcTv \n\nFormat : AVI\nFormat/Info : Audio Video Interleave\nFile size : 693 MiB\nDuration : 2h 6mn\nOverall bit rate : 769 Kbps\n\nVideo\nID : 0\nFormat : MPEG-4 Visual\nFormat profile : Advanced Simple@L5\nFormat settings, BVOP : 2\nFormat settings, QPel : No\nFormat settings, GMC : No warppoints\nFormat settings, Matrix : Default (H.263)\nCodec ID : XVID\nCodec ID/Hint : XviD\nDuration : 2h 6mn\nBit rate : 635 Kbps\nWidth : 640 pixels\nHeight : 272 pixels\nDisplay aspect ratio : 2.35:1\nFrame rate : 25.000 fps\nColor space : YUV\nChroma subsampling : 4:2:0\nBit depth : 8 bits\nScan type : Progressive\nCompression mode : Lossy\nBits/(Pixel*Frame) : 0.146\nStream size : 572 MiB (83%)\nWriting library : XviD 1.2.1 (UTC 2008-12-04)\n\nAudio\nID : 1\nFormat : MPEG Audio\nFormat version : Version 1\nFormat profile : Layer 3\nMode : Joint stereo\nMode extension : MS Stereo\nCodec ID : 55\nCodec ID/Hint : MP3\nDuration : 2h 6mn\nBit rate mode : Constant\nBit rate : 128 Kbps\nChannel(s) : 2 channels\nSampling rate : 48.0 KHz\nCompression mode : Lossy\nStream size : 115 MiB (17%)\n\nScreens : - \n &lt;a href=&quot;\nhttp://imgsparrow.co/image/nq&quot; rel=&quot;nofollow&quot; target=&quot;_NEW&quot;&gt;\nhttp://imgsparrow.co/image/nq&lt;/a&gt; &lt;a href=&quot;\nhttp://imgsparrow.co/image/nz&quot; rel=&quot;nofollow&quot; target=&quot;_NEW&quot;&gt;\nhttp://imgsparrow.co/image/nz&lt;/a&gt; &lt;a href=&quot;\nhttp://imgsparrow.co/image/n7&quot; rel=&quot;nofollow&quot; target=&quot;_NEW&quot;&gt;\nhttp://imgsparrow.co/image/n7&lt;/a&gt; &lt;a href=&quot;\nhttp://imgsparrow.co/image/nk&quot; rel=&quot;nofollow&quot; target=&quot;_NEW&quot;&gt;\nhttp://imgsparrow.co/image/nk&lt;/a&gt; &lt;a href=&quot;\nhttp://imgsparrow.co/image/nn&quot; rel=&quot;nofollow&quot; target=&quot;_NEW&quot;&gt;\nhttp://imgsparrow.co/image/nn&lt;/a&gt; &lt;a href=&quot;\nhttp://imgsparrow.co/image/ny&quot; rel=&quot;nofollow&quot; target=&quot;_NEW&quot;&gt;\nhttp://imgsparrow.co/image/ny&lt;/a&gt; &lt;a href=&quot;\nhttp://imgsparrow.co/image/n5&quot; rel=&quot;nofollow&quot; target=&quot;_NEW&quot;&gt;\nhttp://imgsparrow.co/image/n5&lt;/a&gt; &lt;a href=&quot;\nhttp://imgsparrow.co/image/nA&quot; rel=&quot;nofollow&quot; target=&quot;_NEW&quot;&gt;\nhttp://imgsparrow.co/image/nA&lt;/a&gt; &lt;a href=&quot;\nhttp://imgsparrow.co/image/nQ&quot; rel=&quot;nofollow&quot; target=&quot;_NEW&quot;&gt;\nhttp://imgsparrow.co/image/nQ&lt;/a&gt; &lt;a href=&quot;\nhttp://imgsparrow.co/image/nZ&quot; rel=&quot;nofollow&quot; target=&quot;_NEW&quot;&gt;\nhttp://imgsparrow.co/image/nZ&lt;/a&gt;\n &lt;a href=&quot;\nhttp://imgsparrow.co/image/N2&quot; rel=&quot;nofollow&quot; target=&quot;_NEW&quot;&gt;\nhttp://imgsparrow.co/image/N2&lt;/a&gt;","torrent":{"xt":"urn:btih:7c368a60edb1631ee0bf7535b846ee5182247cac","amp;dn":"Hamari+Adhuri+Kahani+%282015%29+Pre+DvD+Rip+-+XviD+-+%5B1CD%5D+-+Team+Ic","amp;tr":["udp%3A%2F%2Ftracker.openbittorrent.com%3A80","udp%3A%2F%2Fopen.demonii.com%3A1337","udp%3A%2F%2Ftracker.coppersurfer.tk%3A6969","udp%3A%2F%2Fexodus.desync.com%3A6969"],"infoHash":"7c368a60edb1631ee0bf7535b846ee5182247cac","infoHashBuffer":{"type":"Buffer","data":[124,54,138,96,237,177,99,30,224,191,117,53,184,70,238,81,130,36,124,172]},"announce":[],"urlList":[]}}